<svg xmlns="http://www.w3.org/2000/svg" xmlns:xlink="http://www.w3.org/1999/xlink" width="178" zoomAndPan="magnify" viewBox="0 0 133.5 79.499998" height="106" preserveAspectRatio="xMidYMid meet" version="1.0"><defs><g/><clipPath id="10e32d5cb3"><path d="M 0.886719 0.269531 L 61.863281 0.269531 L 61.863281 66.792969 L 0.886719 66.792969 Z M 0.886719 0.269531 " clip-rule="nonzero"/></clipPath><clipPath id="d96e51f1f8"><path d="M 23.46875 21.546875 L 43.910156 21.546875 L 43.910156 45.796875 L 23.46875 45.796875 Z M 23.46875 21.546875 " clip-rule="nonzero"/></clipPath></defs><g clip-path="url(#10e32d5cb3)"><path fill="#ffb703" d="M 57.554688 16.152344 C 54.917969 12.917969 51.644531 10.347656 47.738281 8.4375 C 43.832031 6.523438 39.605469 5.570312 35.050781 5.570312 C 31.085938 5.570312 27.351562 6.300781 23.839844 7.761719 C 20.34375 9.222656 17.28125 11.234375 14.675781 13.761719 C 12.066406 16.304688 10.007812 19.257812 8.511719 22.632812 C 7.015625 26.003906 6.257812 29.601562 6.257812 33.425781 C 6.257812 37.25 7.003906 40.847656 8.511719 44.21875 C 10.007812 47.59375 12.066406 50.542969 14.675781 53.046875 C 17.28125 55.5625 20.34375 57.542969 23.851562 59.003906 C 27.363281 60.464844 31.101562 61.199219 35.0625 61.199219 C 39.617188 61.199219 43.847656 60.242188 47.753906 58.332031 C 51.660156 56.417969 54.917969 53.847656 57.566406 50.613281 L 61.714844 53.847656 L 61.796875 53.847656 C 58.679688 57.796875 54.804688 60.945312 50.191406 63.277344 C 45.566406 65.625 40.535156 66.792969 35.078125 66.792969 C 30.394531 66.792969 25.984375 65.90625 21.851562 64.148438 C 17.707031 62.390625 14.097656 59.972656 11.007812 56.925781 C 7.917969 53.875 5.464844 50.332031 3.675781 46.300781 C 1.855469 42.292969 0.953125 38.007812 0.953125 33.453125 C 0.953125 28.914062 1.855469 24.613281 3.660156 20.578125 C 5.464844 16.546875 7.90625 13.019531 10.992188 9.996094 C 14.082031 6.972656 17.691406 4.597656 21.835938 2.871094 C 25.96875 1.140625 30.382812 0.269531 35.0625 0.269531 C 40.519531 0.269531 45.566406 1.410156 50.179688 3.683594 C 54.804688 5.960938 58.667969 9.039062 61.785156 12.917969 L 61.699219 13.003906 Z M 35.035156 15.617188 C 32.511719 15.617188 30.128906 16.082031 27.886719 17.007812 C 25.628906 17.9375 23.671875 19.203125 21.992188 20.816406 C 20.3125 22.433594 18.988281 24.332031 18.03125 26.511719 C 17.070312 28.6875 16.589844 31.007812 16.589844 33.46875 C 16.589844 35.925781 17.070312 38.21875 18.03125 40.382812 C 18.988281 42.53125 20.3125 44.417969 21.992188 46.03125 C 23.671875 47.648438 25.628906 48.914062 27.886719 49.839844 C 30.140625 50.769531 32.523438 51.234375 35.035156 51.234375 C 37.96875 51.234375 40.6875 50.613281 43.183594 49.390625 C 45.679688 48.167969 47.753906 46.539062 49.445312 44.5 L 53.675781 47.734375 C 51.519531 50.429688 48.8125 52.566406 45.582031 54.140625 C 42.339844 55.730469 38.828125 56.515625 35.050781 56.515625 C 31.75 56.515625 28.660156 55.914062 25.785156 54.71875 C 22.910156 53.523438 20.382812 51.878906 18.226562 49.785156 C 16.042969 47.71875 14.347656 45.257812 13.121094 42.449219 C 11.894531 39.636719 11.277344 36.644531 11.277344 33.480469 C 11.277344 30.320312 11.894531 27.324219 13.121094 24.515625 C 14.347656 21.703125 16.054688 19.257812 18.214844 17.164062 C 20.371094 15.070312 22.894531 13.410156 25.769531 12.1875 C 28.648438 10.964844 31.734375 10.347656 35.035156 10.347656 C 38.8125 10.347656 42.324219 11.132812 45.566406 12.722656 C 48.8125 14.3125 51.503906 16.445312 53.660156 19.132812 L 49.429688 22.449219 C 47.695312 20.355469 45.597656 18.695312 43.128906 17.472656 C 40.675781 16.238281 37.96875 15.617188 35.035156 15.617188 Z M 35.035156 15.617188 " fill-opacity="1" fill-rule="nonzero"/><path fill="#ffb703" d="M 57.554688 16.152344 C 54.917969 12.917969 51.644531 10.347656 47.738281 8.4375 C 43.832031 6.523438 39.605469 5.570312 35.050781 5.570312 C 31.085938 5.570312 27.351562 6.300781 23.839844 7.761719 C 20.34375 9.222656 17.28125 11.234375 14.675781 13.761719 C 12.066406 16.304688 10.007812 19.257812 8.511719 22.632812 C 7.015625 26.003906 6.257812 29.601562 6.257812 33.425781 C 6.257812 37.25 7.003906 40.847656 8.511719 44.21875 C 10.007812 47.59375 12.066406 50.542969 14.675781 53.046875 C 17.28125 55.5625 20.34375 57.542969 23.851562 59.003906 C 27.363281 60.464844 31.101562 61.199219 35.0625 61.199219 C 39.617188 61.199219 43.847656 60.242188 47.753906 58.332031 C 51.660156 56.417969 54.917969 53.847656 57.566406 50.613281 L 61.714844 53.847656 L 61.796875 53.847656 C 58.679688 57.796875 54.804688 60.945312 50.191406 63.277344 C 45.566406 65.625 40.535156 66.792969 35.078125 66.792969 C 30.394531 66.792969 25.984375 65.90625 21.851562 64.148438 C 17.707031 62.390625 14.097656 59.972656 11.007812 56.925781 C 7.917969 53.875 5.464844 50.332031 3.675781 46.300781 C 1.855469 42.292969 0.953125 38.007812 0.953125 33.453125 C 0.953125 28.914062 1.855469 24.613281 3.660156 20.578125 C 5.464844 16.546875 7.90625 13.019531 10.992188 9.996094 C 14.082031 6.972656 17.691406 4.597656 21.835938 2.871094 C 25.96875 1.140625 30.382812 0.269531 35.0625 0.269531 C 40.519531 0.269531 45.566406 1.410156 50.179688 3.683594 C 54.804688 5.960938 58.667969 9.039062 61.785156 12.917969 L 61.699219 13.003906 Z M 35.035156 15.617188 C 32.511719 15.617188 30.128906 16.082031 27.886719 17.007812 C 25.628906 17.9375 23.671875 19.203125 21.992188 20.816406 C 20.3125 22.433594 18.988281 24.332031 18.03125 26.511719 C 17.070312 28.6875 16.589844 31.007812 16.589844 33.46875 C 16.589844 35.925781 17.070312 38.21875 18.03125 40.382812 C 18.988281 42.53125 20.3125 44.417969 21.992188 46.03125 C 23.671875 47.648438 25.628906 48.914062 27.886719 49.839844 C 30.140625 50.769531 32.523438 51.234375 35.035156 51.234375 C 37.96875 51.234375 40.6875 50.613281 43.183594 49.390625 C 45.679688 48.167969 47.753906 46.539062 49.445312 44.5 L 53.675781 47.734375 C 51.519531 50.429688 48.8125 52.566406 45.582031 54.140625 C 42.339844 55.730469 38.828125 56.515625 35.050781 56.515625 C 31.75 56.515625 28.660156 55.914062 25.785156 54.71875 C 22.910156 53.523438 20.382812 51.878906 18.226562 49.785156 C 16.042969 47.71875 14.347656 45.257812 13.121094 42.449219 C 11.894531 39.636719 11.277344 36.644531 11.277344 33.480469 C 11.277344 30.320312 11.894531 27.324219 13.121094 24.515625 C 14.347656 21.703125 16.054688 19.257812 18.214844 17.164062 C 20.371094 15.070312 22.894531 13.410156 25.769531 12.1875 C 28.648438 10.964844 31.734375 10.347656 35.035156 10.347656 C 38.8125 10.347656 42.324219 11.132812 45.566406 12.722656 C 48.8125 14.3125 51.503906 16.445312 53.660156 19.132812 L 49.429688 22.449219 C 47.695312 20.355469 45.597656 18.695312 43.128906 17.472656 C 40.675781 16.238281 37.96875 15.617188 35.035156 15.617188 Z M 35.035156 15.617188 " fill-opacity="1" fill-rule="nonzero"/></g><g clip-path="url(#d96e51f1f8)"><path fill="#0e2b63" d="M 42.238281 35.347656 C 42.183594 35.292969 42.128906 35.242188 42.074219 35.1875 L 42.074219 33.132812 C 42.074219 32.96875 41.964844 32.808594 41.859375 32.699219 C 41.695312 32.589844 41.535156 32.589844 41.375 32.644531 L 40.242188 33.078125 C 39.109375 32.105469 37.757812 31.402344 36.304688 31.023438 C 37.757812 30.15625 38.730469 28.535156 38.730469 26.695312 C 38.730469 23.882812 36.464844 21.613281 33.660156 21.613281 C 30.855469 21.613281 28.589844 23.882812 28.589844 26.695312 C 28.589844 28.535156 29.5625 30.101562 31.019531 31.023438 C 29.5625 31.402344 28.214844 32.105469 27.082031 33.078125 L 25.949219 32.644531 C 25.785156 32.589844 25.570312 32.589844 25.460938 32.699219 C 25.300781 32.808594 25.246094 32.96875 25.246094 33.132812 L 25.246094 35.132812 C 24.058594 36.808594 23.46875 38.703125 23.46875 40.863281 C 23.46875 41.1875 23.683594 41.40625 24.007812 41.40625 C 24.058594 41.40625 24.113281 41.40625 24.113281 41.40625 C 24.167969 41.40625 24.167969 41.40625 24.222656 41.40625 L 25.191406 41.40625 L 25.191406 43.027344 C 25.191406 43.242188 25.355469 43.460938 25.570312 43.515625 L 32.042969 45.675781 C 32.097656 45.675781 32.152344 45.730469 32.203125 45.730469 L 34.957031 45.730469 C 35.007812 45.730469 35.0625 45.730469 35.117188 45.675781 L 41.589844 43.515625 C 41.804688 43.460938 41.964844 43.242188 41.964844 43.027344 L 41.964844 41.40625 L 43.207031 41.40625 C 43.53125 41.40625 43.746094 41.1875 43.746094 40.863281 C 43.910156 38.863281 43.316406 36.972656 42.238281 35.347656 Z M 29.722656 26.695312 C 29.722656 24.476562 31.503906 22.695312 33.714844 22.695312 C 35.925781 22.695312 37.707031 24.476562 37.707031 26.695312 C 37.707031 28.914062 35.925781 30.699219 33.714844 30.699219 C 31.503906 30.699219 29.722656 28.859375 29.722656 26.695312 Z M 33.714844 31.726562 C 35.65625 31.726562 37.542969 32.375 39.109375 33.511719 L 35.007812 35.078125 L 32.421875 35.078125 L 28.320312 33.511719 C 29.886719 32.375 31.773438 31.726562 33.714844 31.726562 Z M 32.851562 36.160156 L 34.523438 36.160156 L 34.523438 44.648438 L 32.851562 44.648438 Z M 24.652344 40.324219 C 24.707031 39.242188 24.921875 38.269531 25.300781 37.347656 L 25.300781 40.324219 Z M 26.378906 35.402344 C 26.433594 35.292969 26.378906 35.1875 26.378906 35.132812 L 26.378906 33.941406 L 31.773438 35.996094 L 31.773438 44.433594 L 26.378906 42.648438 Z M 41.050781 42.648438 L 35.65625 44.433594 L 35.65625 35.996094 L 41.050781 33.941406 Z M 42.128906 37.402344 C 42.507812 38.324219 42.722656 39.296875 42.777344 40.324219 L 42.128906 40.324219 Z M 42.128906 37.402344 " fill-opacity="1" fill-rule="nonzero"/></g><g fill="#ffffff" fill-opacity="1"><g transform="translate(39.579523, 47.481601)"><g/></g></g><g fill="#0e2b63" fill-opacity="1"><g transform="translate(48.127542, 47.481601)"><g><path d="M 12.390625 -10.40625 L 1.546875 -10.40625 L 1.546875 -14.734375 L 12.390625 -14.734375 Z M 12.390625 -10.40625 "/></g></g></g><g fill="#0e2b63" fill-opacity="1"><g transform="translate(62.092921, 47.481601)"><g><path d="M 14.109375 0.375 C 11.734375 0.375 9.640625 -0.109375 7.828125 -1.078125 C 6.015625 -2.046875 4.59375 -3.523438 3.5625 -5.515625 C 2.539062 -7.503906 2.03125 -9.976562 2.03125 -12.9375 C 2.03125 -15.894531 2.539062 -18.367188 3.5625 -20.359375 C 4.59375 -22.347656 6.015625 -23.828125 7.828125 -24.796875 C 9.640625 -25.765625 11.734375 -26.25 14.109375 -26.25 C 16.484375 -26.25 18.570312 -25.765625 20.375 -24.796875 C 22.175781 -23.835938 23.585938 -22.359375 24.609375 -20.359375 C 25.628906 -18.367188 26.140625 -15.894531 26.140625 -12.9375 C 26.140625 -9.976562 25.628906 -7.5 24.609375 -5.5 C 23.585938 -3.507812 22.175781 -2.03125 20.375 -1.0625 C 18.570312 -0.101562 16.484375 0.375 14.109375 0.375 Z M 14.109375 -4.078125 C 16.304688 -4.078125 17.984375 -4.78125 19.140625 -6.1875 C 20.296875 -7.59375 20.875 -9.84375 20.875 -12.9375 C 20.875 -16.03125 20.296875 -18.285156 19.140625 -19.703125 C 17.984375 -21.117188 16.304688 -21.828125 14.109375 -21.828125 C 11.898438 -21.828125 10.210938 -21.117188 9.046875 -19.703125 C 7.890625 -18.285156 7.3125 -16.03125 7.3125 -12.9375 C 7.3125 -9.84375 7.890625 -7.59375 9.046875 -6.1875 C 10.210938 -4.78125 11.898438 -4.078125 14.109375 -4.078125 Z M 14.109375 -4.078125 "/></g></g></g><g fill="#0e2b63" fill-opacity="1"><g transform="translate(90.289177, 47.481601)"><g><path d="M 8.484375 0 L 3.359375 0 L 3.359375 -25.875 L 8.484375 -25.875 Z M 8.484375 0 "/></g></g></g><g fill="#0e2b63" fill-opacity="1"><g transform="translate(102.148241, 47.481601)"><g><path d="M 11.46875 0.375 C 9.675781 0.375 8.078125 0.15625 6.671875 -0.28125 C 5.273438 -0.726562 4.109375 -1.3125 3.171875 -2.03125 C 2.242188 -2.75 1.535156 -3.539062 1.046875 -4.40625 L 3.859375 -7.84375 L 4.296875 -7.84375 C 5.078125 -6.6875 6.066406 -5.765625 7.265625 -5.078125 C 8.460938 -4.390625 9.863281 -4.046875 11.46875 -4.046875 C 12.832031 -4.046875 13.863281 -4.332031 14.5625 -4.90625 C 15.257812 -5.488281 15.609375 -6.289062 15.609375 -7.3125 C 15.609375 -7.925781 15.492188 -8.4375 15.265625 -8.84375 C 15.046875 -9.257812 14.675781 -9.613281 14.15625 -9.90625 C 13.632812 -10.207031 12.929688 -10.460938 12.046875 -10.671875 L 8.71875 -11.4375 C 6.394531 -11.96875 4.664062 -12.847656 3.53125 -14.078125 C 2.394531 -15.316406 1.828125 -16.921875 1.828125 -18.890625 C 1.828125 -20.347656 2.191406 -21.628906 2.921875 -22.734375 C 3.648438 -23.847656 4.710938 -24.710938 6.109375 -25.328125 C 7.515625 -25.941406 9.191406 -26.25 11.140625 -26.25 C 13.128906 -26.25 14.832031 -25.984375 16.25 -25.453125 C 17.675781 -24.929688 18.878906 -24.128906 19.859375 -23.046875 L 17.328125 -19.578125 L 16.890625 -19.578125 C 16.148438 -20.347656 15.304688 -20.921875 14.359375 -21.296875 C 13.421875 -21.679688 12.347656 -21.875 11.140625 -21.875 C 9.734375 -21.875 8.660156 -21.625 7.921875 -21.125 C 7.191406 -20.632812 6.828125 -19.953125 6.828125 -19.078125 C 6.828125 -18.265625 7.082031 -17.613281 7.59375 -17.125 C 8.113281 -16.644531 9.003906 -16.269531 10.265625 -16 L 13.671875 -15.296875 C 16.179688 -14.765625 18 -13.863281 19.125 -12.59375 C 20.257812 -11.320312 20.828125 -9.664062 20.828125 -7.625 C 20.828125 -6.007812 20.476562 -4.601562 19.78125 -3.40625 C 19.09375 -2.207031 18.046875 -1.273438 16.640625 -0.609375 C 15.234375 0.046875 13.507812 0.375 11.46875 0.375 Z M 11.46875 0.375 "/></g></g></g><g fill="#0e2b63" fill-opacity="1"><g transform="translate(0.88716, 76.985013)"><g><path d="M 2.308594 0.0625 C 3.148438 0.0625 3.789062 -0.363281 4.121094 -1.125 L 3.554688 -1.367188 C 3.3125 -0.742188 2.875 -0.519531 2.324219 -0.519531 C 1.332031 -0.519531 0.929688 -1.265625 0.929688 -2.167969 C 0.929688 -3.035156 1.332031 -3.777344 2.3125 -3.777344 C 2.863281 -3.777344 3.371094 -3.5625 3.542969 -2.941406 L 4.117188 -3.175781 C 3.792969 -3.972656 3.148438 -4.363281 2.328125 -4.363281 C 0.9375 -4.363281 0.320312 -3.332031 0.320312 -2.148438 C 0.320312 -0.957031 0.953125 0.0625 2.308594 0.0625 Z M 2.308594 0.0625 "/></g></g><g transform="translate(5.21521, 76.985013)"><g><path d="M 0.457031 -3.660156 L 1.089844 -3.660156 L 1.089844 -4.292969 L 0.457031 -4.292969 Z M 0.480469 0 L 1.066406 0 L 1.066406 -3.035156 L 0.480469 -3.035156 Z M 0.480469 0 "/></g></g></g><g fill="#0e2b63" fill-opacity="1"><g transform="translate(6.761159, 76.985013)"><g><path d="M 1.429688 0.0625 C 1.628906 0.0625 1.816406 0.0195312 1.90625 -0.015625 L 1.90625 -0.539062 C 1.808594 -0.488281 1.671875 -0.445312 1.542969 -0.445312 C 1.335938 -0.445312 1.179688 -0.566406 1.179688 -0.878906 L 1.179688 -2.546875 L 1.945312 -2.546875 L 1.945312 -3.035156 L 1.179688 -3.035156 L 1.179688 -4.226562 L 0.601562 -3.75 L 0.601562 -3.035156 L 0.105469 -3.035156 L 0.105469 -2.546875 L 0.59375 -2.546875 L 0.59375 -0.820312 C 0.59375 -0.285156 0.867188 0.0625 1.429688 0.0625 Z M 1.429688 0.0625 "/></g></g><g transform="translate(8.920628, 76.985013)"><g><path d="M 0.6875 1.304688 L 1.316406 1.304688 L 2.996094 -3.035156 L 2.351562 -3.035156 L 1.527344 -0.730469 L 0.695312 -3.035156 L 0.046875 -3.035156 L 1.222656 -0.046875 Z M 0.6875 1.304688 "/></g></g></g><g fill="#0e2b63" fill-opacity="1"><g transform="translate(11.96393, 76.985013)"><g/></g></g><g fill="#0e2b63" fill-opacity="1"><g transform="translate(13.537214, 76.985013)"><g><path d="M 1.753906 0.046875 C 2.546875 0.046875 3.164062 -0.4375 3.164062 -1.214844 C 3.164062 -2.617188 1.09375 -2.371094 1.09375 -3.261719 C 1.09375 -3.597656 1.382812 -3.8125 1.714844 -3.8125 C 2.027344 -3.8125 2.316406 -3.652344 2.480469 -3.335938 L 2.972656 -3.648438 C 2.695312 -4.132812 2.246094 -4.355469 1.726562 -4.355469 C 1.050781 -4.355469 0.484375 -3.925781 0.484375 -3.222656 C 0.484375 -1.875 2.558594 -2.167969 2.558594 -1.164062 C 2.558594 -0.742188 2.25 -0.5 1.761719 -0.5 C 1.277344 -0.5 0.851562 -0.753906 0.796875 -1.3125 L 0.199219 -1.152344 C 0.328125 -0.347656 1.027344 0.046875 1.753906 0.046875 Z M 1.753906 0.046875 "/></g></g><g transform="translate(16.948021, 76.985013)"><g><path d="M 1.617188 0.0625 C 2.191406 0.0625 2.632812 -0.253906 2.820312 -0.789062 L 2.300781 -1 C 2.210938 -0.675781 1.945312 -0.457031 1.613281 -0.457031 C 1.03125 -0.457031 0.828125 -1.003906 0.828125 -1.511719 C 0.828125 -2.015625 1.039062 -2.578125 1.613281 -2.578125 C 1.949219 -2.578125 2.210938 -2.355469 2.300781 -2.023438 L 2.855469 -2.25 C 2.632812 -2.796875 2.1875 -3.097656 1.613281 -3.097656 C 0.683594 -3.097656 0.230469 -2.316406 0.230469 -1.511719 C 0.230469 -0.699219 0.6875 0.0625 1.617188 0.0625 Z M 1.617188 0.0625 "/></g></g><g transform="translate(19.948802, 76.985013)"><g><path d="M 0.484375 0 L 1.074219 0 L 1.074219 -1.589844 C 1.074219 -2.121094 1.378906 -2.550781 1.882812 -2.550781 C 2.371094 -2.550781 2.480469 -2.160156 2.480469 -1.769531 L 2.480469 0 L 3.078125 0 L 3.078125 -1.851562 C 3.078125 -2.488281 2.769531 -3.09375 2.011719 -3.09375 C 1.660156 -3.09375 1.296875 -2.921875 1.074219 -2.601562 L 1.074219 -4.292969 L 0.484375 -4.292969 Z M 0.484375 0 "/></g></g><g transform="translate(23.426428, 76.985013)"><g><path d="M 1.699219 0.0625 C 2.59375 0.0625 3.199219 -0.664062 3.199219 -1.523438 C 3.199219 -2.382812 2.59375 -3.097656 1.699219 -3.097656 C 0.804688 -3.097656 0.210938 -2.382812 0.210938 -1.523438 C 0.210938 -0.664062 0.804688 0.0625 1.699219 0.0625 Z M 1.703125 -0.4375 C 1.085938 -0.4375 0.816406 -0.964844 0.816406 -1.523438 C 0.816406 -2.082031 1.085938 -2.597656 1.703125 -2.597656 C 2.328125 -2.597656 2.589844 -2.082031 2.589844 -1.523438 C 2.589844 -0.972656 2.328125 -0.4375 1.703125 -0.4375 Z M 1.703125 -0.4375 "/></g></g><g transform="translate(26.837235, 76.985013)"><g><path d="M 1.023438 0.0625 C 1.1875 0.0625 1.375 0.03125 1.5 0 L 1.5 -0.484375 C 1.425781 -0.472656 1.324219 -0.460938 1.25 -0.460938 C 1.097656 -0.460938 1.054688 -0.597656 1.054688 -0.648438 L 1.054688 -4.292969 L 0.464844 -4.292969 L 0.464844 -0.609375 C 0.464844 -0.164062 0.617188 0.0625 1.023438 0.0625 Z M 1.023438 0.0625 "/></g></g><g transform="translate(28.489487, 76.985013)"><g><path d="M 1.242188 0.0625 C 1.640625 0.0625 2.011719 -0.09375 2.25 -0.511719 L 2.28125 0 L 2.769531 0 L 2.769531 -1.851562 C 2.769531 -2.589844 2.324219 -3.097656 1.523438 -3.097656 C 0.976562 -3.097656 0.597656 -2.859375 0.320312 -2.46875 L 0.757812 -2.140625 C 0.898438 -2.355469 1.148438 -2.585938 1.539062 -2.585938 C 2.015625 -2.585938 2.21875 -2.253906 2.21875 -1.769531 L 1.480469 -1.769531 C 0.703125 -1.769531 0.203125 -1.519531 0.203125 -0.886719 C 0.203125 -0.285156 0.648438 0.0625 1.242188 0.0625 Z M 1.316406 -0.4375 C 1.015625 -0.4375 0.808594 -0.582031 0.808594 -0.867188 C 0.808594 -1.171875 1.042969 -1.335938 1.523438 -1.335938 L 2.21875 -1.335938 C 2.210938 -0.898438 1.847656 -0.4375 1.316406 -0.4375 Z M 1.316406 -0.4375 "/></g></g></g><g fill="#0e2b63" fill-opacity="1"><g transform="translate(31.654278, 76.985013)"><g><path d="M 0.480469 0 L 1.050781 0 L 1.050781 -1.40625 C 1.050781 -2.15625 1.386719 -2.53125 1.824219 -2.53125 C 1.957031 -2.53125 2.074219 -2.492188 2.175781 -2.417969 L 2.433594 -2.914062 C 2.304688 -3.027344 2.121094 -3.097656 1.914062 -3.097656 C 1.550781 -3.097656 1.203125 -2.878906 1.058594 -2.507812 L 1.058594 -3.035156 L 0.480469 -3.035156 Z M 0.480469 0 "/></g></g><g transform="translate(34.099247, 76.985013)"><g><path d="M 1.355469 0.0625 C 1.902344 0.0625 2.460938 -0.242188 2.460938 -0.90625 C 2.460938 -2.019531 0.867188 -1.695312 0.867188 -2.285156 C 0.867188 -2.480469 1.046875 -2.628906 1.332031 -2.628906 C 1.660156 -2.628906 1.859375 -2.449219 1.976562 -2.21875 L 2.421875 -2.464844 C 2.21875 -2.851562 1.847656 -3.097656 1.355469 -3.097656 C 0.804688 -3.097656 0.316406 -2.796875 0.316406 -2.207031 C 0.316406 -1.160156 1.886719 -1.535156 1.886719 -0.859375 C 1.886719 -0.609375 1.683594 -0.425781 1.339844 -0.425781 C 0.933594 -0.425781 0.730469 -0.6875 0.636719 -0.960938 L 0.15625 -0.738281 C 0.296875 -0.304688 0.75 0.0625 1.355469 0.0625 Z M 1.355469 0.0625 "/></g></g></g><g fill="#0e2b63" fill-opacity="1"><g transform="translate(36.796305, 76.985013)"><g><path d="M 0.484375 0 L 1.074219 0 L 1.074219 -1.589844 C 1.074219 -2.121094 1.378906 -2.550781 1.882812 -2.550781 C 2.371094 -2.550781 2.480469 -2.160156 2.480469 -1.769531 L 2.480469 0 L 3.078125 0 L 3.078125 -1.851562 C 3.078125 -2.488281 2.769531 -3.09375 2.011719 -3.09375 C 1.660156 -3.09375 1.296875 -2.921875 1.074219 -2.601562 L 1.074219 -4.292969 L 0.484375 -4.292969 Z M 0.484375 0 "/></g></g><g transform="translate(40.273931, 76.985013)"><g><path d="M 0.457031 -3.660156 L 1.089844 -3.660156 L 1.089844 -4.292969 L 0.457031 -4.292969 Z M 0.480469 0 L 1.066406 0 L 1.066406 -3.035156 L 0.480469 -3.035156 Z M 0.480469 0 "/></g></g><g transform="translate(41.81988, 76.985013)"><g><path d="M 0.484375 1.332031 L 1.078125 1.332031 L 1.078125 -0.363281 C 1.289062 -0.078125 1.621094 0.0625 1.976562 0.0625 C 2.804688 0.0625 3.242188 -0.667969 3.242188 -1.519531 C 3.242188 -2.378906 2.800781 -3.097656 1.972656 -3.097656 C 1.605469 -3.097656 1.28125 -2.949219 1.078125 -2.671875 L 1.078125 -3.035156 L 0.484375 -3.035156 Z M 1.835938 -0.464844 C 1.269531 -0.464844 1.023438 -0.949219 1.023438 -1.519531 C 1.023438 -2.082031 1.269531 -2.582031 1.835938 -2.582031 C 2.398438 -2.582031 2.648438 -2.082031 2.648438 -1.519531 C 2.648438 -0.949219 2.398438 -0.464844 1.835938 -0.464844 Z M 1.835938 -0.464844 "/></g></g></g><g fill="#0e2b63" fill-opacity="1"><g transform="translate(45.309655, 76.985013)"><g><path d="M 1.355469 0.0625 C 1.902344 0.0625 2.460938 -0.242188 2.460938 -0.90625 C 2.460938 -2.019531 0.867188 -1.695312 0.867188 -2.285156 C 0.867188 -2.480469 1.046875 -2.628906 1.332031 -2.628906 C 1.660156 -2.628906 1.859375 -2.449219 1.976562 -2.21875 L 2.421875 -2.464844 C 2.21875 -2.851562 1.847656 -3.097656 1.355469 -3.097656 C 0.804688 -3.097656 0.316406 -2.796875 0.316406 -2.207031 C 0.316406 -1.160156 1.886719 -1.535156 1.886719 -0.859375 C 1.886719 -0.609375 1.683594 -0.425781 1.339844 -0.425781 C 0.933594 -0.425781 0.730469 -0.6875 0.636719 -0.960938 L 0.15625 -0.738281 C 0.296875 -0.304688 0.75 0.0625 1.355469 0.0625 Z M 1.355469 0.0625 "/></g></g></g><g fill="#0e2b63" fill-opacity="1"><g transform="translate(48.006713, 76.985013)"><g><path d="M 0.667969 -2.910156 L 1.179688 -2.910156 L 1.179688 -4.378906 L 0.667969 -4.378906 Z M 0.667969 -2.910156 "/></g></g><g transform="translate(49.853348, 76.985013)"><g/></g></g><g fill="#0e2b63" fill-opacity="1"><g transform="translate(51.426632, 76.985013)"><g><path d="M 2.308594 0.0625 C 3.667969 0.0625 4.304688 -0.964844 4.304688 -2.148438 C 4.304688 -3.324219 3.667969 -4.355469 2.308594 -4.355469 C 0.949219 -4.355469 0.316406 -3.324219 0.316406 -2.148438 C 0.316406 -0.964844 0.949219 0.0625 2.308594 0.0625 Z M 2.308594 -0.496094 C 1.328125 -0.496094 0.949219 -1.277344 0.949219 -2.148438 C 0.949219 -3.011719 1.328125 -3.796875 2.308594 -3.796875 C 3.292969 -3.796875 3.675781 -3.011719 3.675781 -2.148438 C 3.675781 -1.277344 3.292969 -0.496094 2.308594 -0.496094 Z M 2.308594 -0.496094 "/></g></g><g transform="translate(56.046255, 76.985013)"><g><path d="M 0.480469 0 L 1.0625 0 L 1.0625 -1.617188 C 1.0625 -2.261719 1.390625 -2.566406 1.835938 -2.566406 C 2.300781 -2.566406 2.476562 -2.175781 2.476562 -1.769531 L 2.476562 0 L 3.058594 0 L 3.058594 -1.835938 C 3.058594 -2.488281 2.757812 -3.09375 2 -3.09375 C 1.628906 -3.09375 1.285156 -2.914062 1.0625 -2.585938 L 1.0625 -3.035156 L 0.480469 -3.035156 Z M 0.480469 0 "/></g></g><g transform="translate(59.505658, 76.985013)"><g><path d="M 1.023438 0.0625 C 1.1875 0.0625 1.375 0.03125 1.5 0 L 1.5 -0.484375 C 1.425781 -0.472656 1.324219 -0.460938 1.25 -0.460938 C 1.097656 -0.460938 1.054688 -0.597656 1.054688 -0.648438 L 1.054688 -4.292969 L 0.464844 -4.292969 L 0.464844 -0.609375 C 0.464844 -0.164062 0.617188 0.0625 1.023438 0.0625 Z M 1.023438 0.0625 "/></g></g><g transform="translate(61.15791, 76.985013)"><g><path d="M 0.457031 -3.660156 L 1.089844 -3.660156 L 1.089844 -4.292969 L 0.457031 -4.292969 Z M 0.480469 0 L 1.066406 0 L 1.066406 -3.035156 L 0.480469 -3.035156 Z M 0.480469 0 "/></g></g><g transform="translate(62.703859, 76.985013)"><g><path d="M 0.480469 0 L 1.0625 0 L 1.0625 -1.617188 C 1.0625 -2.261719 1.390625 -2.566406 1.835938 -2.566406 C 2.300781 -2.566406 2.476562 -2.175781 2.476562 -1.769531 L 2.476562 0 L 3.058594 0 L 3.058594 -1.835938 C 3.058594 -2.488281 2.757812 -3.09375 2 -3.09375 C 1.628906 -3.09375 1.285156 -2.914062 1.0625 -2.585938 L 1.0625 -3.035156 L 0.480469 -3.035156 Z M 0.480469 0 "/></g></g><g transform="translate(66.163261, 76.985013)"><g><path d="M 1.671875 0.0507812 C 2.167969 0.0507812 2.542969 -0.105469 2.875 -0.457031 L 2.464844 -0.796875 C 2.242188 -0.554688 1.988281 -0.472656 1.671875 -0.472656 C 1.132812 -0.472656 0.875 -0.847656 0.847656 -1.324219 L 2.945312 -1.324219 C 2.957031 -1.371094 2.964844 -1.480469 2.964844 -1.582031 C 2.964844 -2.273438 2.644531 -3.085938 1.621094 -3.085938 C 0.675781 -3.085938 0.226562 -2.304688 0.226562 -1.503906 C 0.226562 -0.683594 0.691406 0.0507812 1.671875 0.0507812 Z M 0.847656 -1.769531 C 0.890625 -2.21875 1.121094 -2.597656 1.617188 -2.597656 C 2.132812 -2.597656 2.367188 -2.230469 2.394531 -1.769531 Z M 0.847656 -1.769531 "/></g></g></g><g fill="#0e2b63" fill-opacity="1"><g transform="translate(69.355388, 76.985013)"><g/></g></g><g fill="#0e2b63" fill-opacity="1"><g transform="translate(70.928672, 76.985013)"><g><path d="M 0.601562 0 L 1.21875 0 L 1.21875 -4.292969 L 0.601562 -4.292969 Z M 0.601562 0 "/></g></g><g transform="translate(72.747971, 76.985013)"><g><path d="M 0.480469 0 L 1.0625 0 L 1.0625 -1.617188 C 1.0625 -2.261719 1.390625 -2.566406 1.835938 -2.566406 C 2.300781 -2.566406 2.476562 -2.175781 2.476562 -1.769531 L 2.476562 0 L 3.058594 0 L 3.058594 -1.835938 C 3.058594 -2.488281 2.757812 -3.09375 2 -3.09375 C 1.628906 -3.09375 1.285156 -2.914062 1.0625 -2.585938 L 1.0625 -3.035156 L 0.480469 -3.035156 Z M 0.480469 0 "/></g></g><g transform="translate(76.207374, 76.985013)"><g><path d="M 0.636719 0 L 1.234375 0 L 1.234375 -2.546875 L 2.027344 -2.546875 L 2.027344 -3.035156 L 1.234375 -3.035156 L 1.234375 -3.445312 C 1.234375 -3.722656 1.386719 -3.84375 1.578125 -3.84375 C 1.675781 -3.84375 1.78125 -3.808594 1.878906 -3.757812 L 2.050781 -4.234375 C 1.898438 -4.308594 1.71875 -4.355469 1.527344 -4.355469 C 1.054688 -4.355469 0.636719 -4.0625 0.636719 -3.496094 L 0.636719 -3.035156 L 0.0820312 -3.035156 L 0.0820312 -2.546875 L 0.636719 -2.546875 Z M 0.636719 0 "/></g></g><g transform="translate(78.281801, 76.985013)"><g><path d="M 1.699219 0.0625 C 2.59375 0.0625 3.199219 -0.664062 3.199219 -1.523438 C 3.199219 -2.382812 2.59375 -3.097656 1.699219 -3.097656 C 0.804688 -3.097656 0.210938 -2.382812 0.210938 -1.523438 C 0.210938 -0.664062 0.804688 0.0625 1.699219 0.0625 Z M 1.703125 -0.4375 C 1.085938 -0.4375 0.816406 -0.964844 0.816406 -1.523438 C 0.816406 -2.082031 1.085938 -2.597656 1.703125 -2.597656 C 2.328125 -2.597656 2.589844 -2.082031 2.589844 -1.523438 C 2.589844 -0.972656 2.328125 -0.4375 1.703125 -0.4375 Z M 1.703125 -0.4375 "/></g></g></g><g fill="#0e2b63" fill-opacity="1"><g transform="translate(81.692608, 76.985013)"><g><path d="M 0.480469 0 L 1.050781 0 L 1.050781 -1.40625 C 1.050781 -2.15625 1.386719 -2.53125 1.824219 -2.53125 C 1.957031 -2.53125 2.074219 -2.492188 2.175781 -2.417969 L 2.433594 -2.914062 C 2.304688 -3.027344 2.121094 -3.097656 1.914062 -3.097656 C 1.550781 -3.097656 1.203125 -2.878906 1.058594 -2.507812 L 1.058594 -3.035156 L 0.480469 -3.035156 Z M 0.480469 0 "/></g></g></g><g fill="#0e2b63" fill-opacity="1"><g transform="translate(84.137576, 76.985013)"><g><path d="M 0.480469 0 L 1.070312 0 L 1.070312 -1.621094 C 1.070312 -2.101562 1.328125 -2.570312 1.78125 -2.570312 C 2.238281 -2.570312 2.347656 -2.171875 2.347656 -1.78125 L 2.347656 0 L 2.941406 0 L 2.941406 -1.671875 C 2.941406 -2.128906 3.199219 -2.570312 3.652344 -2.570312 C 4.109375 -2.570312 4.226562 -2.160156 4.226562 -1.769531 L 4.226562 0 L 4.824219 0 L 4.824219 -1.835938 C 4.824219 -2.492188 4.5 -3.097656 3.734375 -3.097656 C 3.324219 -3.097656 2.976562 -2.902344 2.765625 -2.507812 C 2.589844 -2.910156 2.273438 -3.097656 1.871094 -3.097656 C 1.535156 -3.097656 1.230469 -2.921875 1.070312 -2.636719 L 1.070312 -3.035156 L 0.480469 -3.035156 Z M 0.480469 0 "/></g></g><g transform="translate(89.358571, 76.985013)"><g><path d="M 1.242188 0.0625 C 1.640625 0.0625 2.011719 -0.09375 2.25 -0.511719 L 2.28125 0 L 2.769531 0 L 2.769531 -1.851562 C 2.769531 -2.589844 2.324219 -3.097656 1.523438 -3.097656 C 0.976562 -3.097656 0.597656 -2.859375 0.320312 -2.46875 L 0.757812 -2.140625 C 0.898438 -2.355469 1.148438 -2.585938 1.539062 -2.585938 C 2.015625 -2.585938 2.21875 -2.253906 2.21875 -1.769531 L 1.480469 -1.769531 C 0.703125 -1.769531 0.203125 -1.519531 0.203125 -0.886719 C 0.203125 -0.285156 0.648438 0.0625 1.242188 0.0625 Z M 1.316406 -0.4375 C 1.015625 -0.4375 0.808594 -0.582031 0.808594 -0.867188 C 0.808594 -1.171875 1.042969 -1.335938 1.523438 -1.335938 L 2.21875 -1.335938 C 2.210938 -0.898438 1.847656 -0.4375 1.316406 -0.4375 Z M 1.316406 -0.4375 "/></g></g></g><g fill="#0e2b63" fill-opacity="1"><g transform="translate(92.523362, 76.985013)"><g><path d="M 1.429688 0.0625 C 1.628906 0.0625 1.816406 0.0195312 1.90625 -0.015625 L 1.90625 -0.539062 C 1.808594 -0.488281 1.671875 -0.445312 1.542969 -0.445312 C 1.335938 -0.445312 1.179688 -0.566406 1.179688 -0.878906 L 1.179688 -2.546875 L 1.945312 -2.546875 L 1.945312 -3.035156 L 1.179688 -3.035156 L 1.179688 -4.226562 L 0.601562 -3.75 L 0.601562 -3.035156 L 0.105469 -3.035156 L 0.105469 -2.546875 L 0.59375 -2.546875 L 0.59375 -0.820312 C 0.59375 -0.285156 0.867188 0.0625 1.429688 0.0625 Z M 1.429688 0.0625 "/></g></g></g><g fill="#0e2b63" fill-opacity="1"><g transform="translate(94.682831, 76.985013)"><g><path d="M 0.457031 -3.660156 L 1.089844 -3.660156 L 1.089844 -4.292969 L 0.457031 -4.292969 Z M 0.480469 0 L 1.066406 0 L 1.066406 -3.035156 L 0.480469 -3.035156 Z M 0.480469 0 "/></g></g><g transform="translate(96.22878, 76.985013)"><g><path d="M 1.699219 0.0625 C 2.59375 0.0625 3.199219 -0.664062 3.199219 -1.523438 C 3.199219 -2.382812 2.59375 -3.097656 1.699219 -3.097656 C 0.804688 -3.097656 0.210938 -2.382812 0.210938 -1.523438 C 0.210938 -0.664062 0.804688 0.0625 1.699219 0.0625 Z M 1.703125 -0.4375 C 1.085938 -0.4375 0.816406 -0.964844 0.816406 -1.523438 C 0.816406 -2.082031 1.085938 -2.597656 1.703125 -2.597656 C 2.328125 -2.597656 2.589844 -2.082031 2.589844 -1.523438 C 2.589844 -0.972656 2.328125 -0.4375 1.703125 -0.4375 Z M 1.703125 -0.4375 "/></g></g><g transform="translate(99.639587, 76.985013)"><g><path d="M 0.480469 0 L 1.0625 0 L 1.0625 -1.617188 C 1.0625 -2.261719 1.390625 -2.566406 1.835938 -2.566406 C 2.300781 -2.566406 2.476562 -2.175781 2.476562 -1.769531 L 2.476562 0 L 3.058594 0 L 3.058594 -1.835938 C 3.058594 -2.488281 2.757812 -3.09375 2 -3.09375 C 1.628906 -3.09375 1.285156 -2.914062 1.0625 -2.585938 L 1.0625 -3.035156 L 0.480469 -3.035156 Z M 0.480469 0 "/></g></g></g><g fill="#0e2b63" fill-opacity="1"><g transform="translate(103.09899, 76.985013)"><g/></g></g><g fill="#0e2b63" fill-opacity="1"><g transform="translate(104.672274, 76.985013)"><g><path d="M 1.753906 0.046875 C 2.546875 0.046875 3.164062 -0.4375 3.164062 -1.214844 C 3.164062 -2.617188 1.09375 -2.371094 1.09375 -3.261719 C 1.09375 -3.597656 1.382812 -3.8125 1.714844 -3.8125 C 2.027344 -3.8125 2.316406 -3.652344 2.480469 -3.335938 L 2.972656 -3.648438 C 2.695312 -4.132812 2.246094 -4.355469 1.726562 -4.355469 C 1.050781 -4.355469 0.484375 -3.925781 0.484375 -3.222656 C 0.484375 -1.875 2.558594 -2.167969 2.558594 -1.164062 C 2.558594 -0.742188 2.25 -0.5 1.761719 -0.5 C 1.277344 -0.5 0.851562 -0.753906 0.796875 -1.3125 L 0.199219 -1.152344 C 0.328125 -0.347656 1.027344 0.046875 1.753906 0.046875 Z M 1.753906 0.046875 "/></g></g></g><g fill="#0e2b63" fill-opacity="1"><g transform="translate(108.08308, 76.985013)"><g><path d="M 0.6875 1.304688 L 1.316406 1.304688 L 2.996094 -3.035156 L 2.351562 -3.035156 L 1.527344 -0.730469 L 0.695312 -3.035156 L 0.046875 -3.035156 L 1.222656 -0.046875 Z M 0.6875 1.304688 "/></g></g><g transform="translate(111.126383, 76.985013)"><g><path d="M 1.355469 0.0625 C 1.902344 0.0625 2.460938 -0.242188 2.460938 -0.90625 C 2.460938 -2.019531 0.867188 -1.695312 0.867188 -2.285156 C 0.867188 -2.480469 1.046875 -2.628906 1.332031 -2.628906 C 1.660156 -2.628906 1.859375 -2.449219 1.976562 -2.21875 L 2.421875 -2.464844 C 2.21875 -2.851562 1.847656 -3.097656 1.355469 -3.097656 C 0.804688 -3.097656 0.316406 -2.796875 0.316406 -2.207031 C 0.316406 -1.160156 1.886719 -1.535156 1.886719 -0.859375 C 1.886719 -0.609375 1.683594 -0.425781 1.339844 -0.425781 C 0.933594 -0.425781 0.730469 -0.6875 0.636719 -0.960938 L 0.15625 -0.738281 C 0.296875 -0.304688 0.75 0.0625 1.355469 0.0625 Z M 1.355469 0.0625 "/></g></g><g transform="translate(113.823441, 76.985013)"><g><path d="M 1.429688 0.0625 C 1.628906 0.0625 1.816406 0.0195312 1.90625 -0.015625 L 1.90625 -0.539062 C 1.808594 -0.488281 1.671875 -0.445312 1.542969 -0.445312 C 1.335938 -0.445312 1.179688 -0.566406 1.179688 -0.878906 L 1.179688 -2.546875 L 1.945312 -2.546875 L 1.945312 -3.035156 L 1.179688 -3.035156 L 1.179688 -4.226562 L 0.601562 -3.75 L 0.601562 -3.035156 L 0.105469 -3.035156 L 0.105469 -2.546875 L 0.59375 -2.546875 L 0.59375 -0.820312 C 0.59375 -0.285156 0.867188 0.0625 1.429688 0.0625 Z M 1.429688 0.0625 "/></g></g></g><g fill="#0e2b63" fill-opacity="1"><g transform="translate(115.98291, 76.985013)"><g><path d="M 1.671875 0.0507812 C 2.167969 0.0507812 2.542969 -0.105469 2.875 -0.457031 L 2.464844 -0.796875 C 2.242188 -0.554688 1.988281 -0.472656 1.671875 -0.472656 C 1.132812 -0.472656 0.875 -0.847656 0.847656 -1.324219 L 2.945312 -1.324219 C 2.957031 -1.371094 2.964844 -1.480469 2.964844 -1.582031 C 2.964844 -2.273438 2.644531 -3.085938 1.621094 -3.085938 C 0.675781 -3.085938 0.226562 -2.304688 0.226562 -1.503906 C 0.226562 -0.683594 0.691406 0.0507812 1.671875 0.0507812 Z M 0.847656 -1.769531 C 0.890625 -2.21875 1.121094 -2.597656 1.617188 -2.597656 C 2.132812 -2.597656 2.367188 -2.230469 2.394531 -1.769531 Z M 0.847656 -1.769531 "/></g></g><g transform="translate(119.175037, 76.985013)"><g><path d="M 0.480469 0 L 1.070312 0 L 1.070312 -1.621094 C 1.070312 -2.101562 1.328125 -2.570312 1.78125 -2.570312 C 2.238281 -2.570312 2.347656 -2.171875 2.347656 -1.78125 L 2.347656 0 L 2.941406 0 L 2.941406 -1.671875 C 2.941406 -2.128906 3.199219 -2.570312 3.652344 -2.570312 C 4.109375 -2.570312 4.226562 -2.160156 4.226562 -1.769531 L 4.226562 0 L 4.824219 0 L 4.824219 -1.835938 C 4.824219 -2.492188 4.5 -3.097656 3.734375 -3.097656 C 3.324219 -3.097656 2.976562 -2.902344 2.765625 -2.507812 C 2.589844 -2.910156 2.273438 -3.097656 1.871094 -3.097656 C 1.535156 -3.097656 1.230469 -2.921875 1.070312 -2.636719 L 1.070312 -3.035156 L 0.480469 -3.035156 Z M 0.480469 0 "/></g></g></g></svg>