<svg xmlns="http://www.w3.org/2000/svg" xmlns:xlink="http://www.w3.org/1999/xlink" width="500" zoomAndPan="magnify" viewBox="0 0 375 374.999991" height="500" preserveAspectRatio="xMidYMid meet" version="1.0"><defs><g/><clipPath id="5bd1659d61"><path d="M 50.492188 105.582031 L 177.335938 105.582031 L 177.335938 243.960938 L 50.492188 243.960938 Z M 50.492188 105.582031 " clip-rule="nonzero"/></clipPath><clipPath id="e760f64beb"><path d="M 97.460938 149.839844 L 139.984375 149.839844 L 139.984375 200.289062 L 97.460938 200.289062 Z M 97.460938 149.839844 " clip-rule="nonzero"/></clipPath></defs><g clip-path="url(#5bd1659d61)"><path fill="#ffb703" d="M 168.371094 138.621094 C 162.882812 131.894531 156.078125 126.546875 147.953125 122.570312 C 139.828125 118.59375 131.03125 116.605469 121.554688 116.605469 C 113.3125 116.605469 105.539062 118.125 98.234375 121.164062 C 90.960938 124.207031 84.597656 128.386719 79.171875 133.648438 C 73.742188 138.941406 69.460938 145.082031 66.351562 152.097656 C 63.242188 159.113281 61.660156 166.601562 61.660156 174.550781 C 61.660156 182.503906 63.214844 189.988281 66.351562 197.007812 C 69.460938 204.023438 73.742188 210.164062 79.171875 215.367188 C 84.597656 220.601562 90.960938 224.722656 98.265625 227.761719 C 105.570312 230.804688 113.34375 232.324219 121.585938 232.324219 C 131.058594 232.324219 139.859375 230.335938 147.984375 226.359375 C 156.109375 222.382812 162.882812 217.035156 168.398438 210.308594 L 177.023438 217.035156 L 177.199219 217.035156 C 170.714844 225.25 162.648438 231.796875 153.058594 236.652344 C 143.4375 241.535156 132.964844 243.960938 121.613281 243.960938 C 111.875 243.960938 102.695312 242.117188 94.101562 238.464844 C 85.476562 234.808594 77.96875 229.78125 71.542969 223.4375 C 65.121094 217.089844 60.015625 209.722656 56.292969 201.332031 C 52.507812 193 50.628906 184.082031 50.628906 174.609375 C 50.628906 165.167969 52.507812 156.222656 56.261719 147.828125 C 60.015625 139.4375 65.089844 132.101562 71.515625 125.8125 C 77.9375 119.527344 85.449219 114.585938 94.070312 110.992188 C 102.664062 107.394531 111.847656 105.582031 121.585938 105.582031 C 132.9375 105.582031 143.4375 107.949219 153.027344 112.6875 C 162.648438 117.421875 170.6875 123.828125 177.167969 131.894531 L 176.992188 132.070312 Z M 121.527344 137.507812 C 116.277344 137.507812 111.320312 138.472656 106.65625 140.402344 C 101.960938 142.332031 97.882812 144.964844 94.394531 148.328125 C 90.902344 151.6875 88.144531 155.636719 86.152344 160.167969 C 84.15625 164.699219 83.160156 169.523438 83.160156 174.640625 C 83.160156 179.757812 84.15625 184.523438 86.152344 189.023438 C 88.144531 193.496094 90.902344 197.414062 94.394531 200.777344 C 97.882812 204.140625 101.960938 206.769531 106.65625 208.699219 C 111.347656 210.628906 116.304688 211.59375 121.527344 211.59375 C 127.628906 211.59375 133.289062 210.308594 138.480469 207.765625 C 143.671875 205.222656 147.984375 201.832031 151.503906 197.589844 L 160.304688 204.316406 C 155.816406 209.929688 150.183594 214.371094 143.464844 217.648438 C 136.71875 220.949219 129.417969 222.589844 121.554688 222.589844 C 114.691406 222.589844 108.269531 221.332031 102.285156 218.847656 C 96.300781 216.359375 91.050781 212.941406 86.5625 208.582031 C 82.015625 204.285156 78.496094 199.167969 75.945312 193.320312 C 73.390625 187.476562 72.101562 181.246094 72.101562 174.667969 C 72.101562 168.089844 73.390625 161.863281 75.945312 156.015625 C 78.496094 150.167969 82.046875 145.082031 86.53125 140.726562 C 91.019531 136.367188 96.269531 132.917969 102.253906 130.375 C 108.238281 127.832031 114.664062 126.546875 121.527344 126.546875 C 129.386719 126.546875 136.691406 128.183594 143.4375 131.488281 C 150.183594 134.789062 155.785156 139.234375 160.273438 144.820312 L 151.472656 151.71875 C 147.867188 147.363281 143.496094 143.910156 138.363281 141.367188 C 133.257812 138.796875 127.628906 137.507812 121.527344 137.507812 Z M 121.527344 137.507812 " fill-opacity="1" fill-rule="nonzero"/><path fill="#ffb703" d="M 168.371094 138.621094 C 162.882812 131.894531 156.078125 126.546875 147.953125 122.570312 C 139.828125 118.59375 131.03125 116.605469 121.554688 116.605469 C 113.3125 116.605469 105.539062 118.125 98.234375 121.164062 C 90.960938 124.207031 84.597656 128.386719 79.171875 133.648438 C 73.742188 138.941406 69.460938 145.082031 66.351562 152.097656 C 63.242188 159.113281 61.660156 166.601562 61.660156 174.550781 C 61.660156 182.503906 63.214844 189.988281 66.351562 197.007812 C 69.460938 204.023438 73.742188 210.164062 79.171875 215.367188 C 84.597656 220.601562 90.960938 224.722656 98.265625 227.761719 C 105.570312 230.804688 113.34375 232.324219 121.585938 232.324219 C 131.058594 232.324219 139.859375 230.335938 147.984375 226.359375 C 156.109375 222.382812 162.882812 217.035156 168.398438 210.308594 L 177.023438 217.035156 L 177.199219 217.035156 C 170.714844 225.25 162.648438 231.796875 153.058594 236.652344 C 143.4375 241.535156 132.964844 243.960938 121.613281 243.960938 C 111.875 243.960938 102.695312 242.117188 94.101562 238.464844 C 85.476562 234.808594 77.96875 229.78125 71.542969 223.4375 C 65.121094 217.089844 60.015625 209.722656 56.292969 201.332031 C 52.507812 193 50.628906 184.082031 50.628906 174.609375 C 50.628906 165.167969 52.507812 156.222656 56.261719 147.828125 C 60.015625 139.4375 65.089844 132.101562 71.515625 125.8125 C 77.9375 119.527344 85.449219 114.585938 94.070312 110.992188 C 102.664062 107.394531 111.847656 105.582031 121.585938 105.582031 C 132.9375 105.582031 143.4375 107.949219 153.027344 112.6875 C 162.648438 117.421875 170.6875 123.828125 177.167969 131.894531 L 176.992188 132.070312 Z M 121.527344 137.507812 C 116.277344 137.507812 111.320312 138.472656 106.65625 140.402344 C 101.960938 142.332031 97.882812 144.964844 94.394531 148.328125 C 90.902344 151.6875 88.144531 155.636719 86.152344 160.167969 C 84.15625 164.699219 83.160156 169.523438 83.160156 174.640625 C 83.160156 179.757812 84.15625 184.523438 86.152344 189.023438 C 88.144531 193.496094 90.902344 197.414062 94.394531 200.777344 C 97.882812 204.140625 101.960938 206.769531 106.65625 208.699219 C 111.347656 210.628906 116.304688 211.59375 121.527344 211.59375 C 127.628906 211.59375 133.289062 210.308594 138.480469 207.765625 C 143.671875 205.222656 147.984375 201.832031 151.503906 197.589844 L 160.304688 204.316406 C 155.816406 209.929688 150.183594 214.371094 143.464844 217.648438 C 136.71875 220.949219 129.417969 222.589844 121.554688 222.589844 C 114.691406 222.589844 108.269531 221.332031 102.285156 218.847656 C 96.300781 216.359375 91.050781 212.941406 86.5625 208.582031 C 82.015625 204.285156 78.496094 199.167969 75.945312 193.320312 C 73.390625 187.476562 72.101562 181.246094 72.101562 174.667969 C 72.101562 168.089844 73.390625 161.863281 75.945312 156.015625 C 78.496094 150.167969 82.046875 145.082031 86.53125 140.726562 C 91.019531 136.367188 96.269531 132.917969 102.253906 130.375 C 108.238281 127.832031 114.664062 126.546875 121.527344 126.546875 C 129.386719 126.546875 136.691406 128.183594 143.4375 131.488281 C 150.183594 134.789062 155.785156 139.234375 160.273438 144.820312 L 151.472656 151.71875 C 147.867188 147.363281 143.496094 143.910156 138.363281 141.367188 C 133.257812 138.796875 127.628906 137.507812 121.527344 137.507812 Z M 121.527344 137.507812 " fill-opacity="1" fill-rule="nonzero"/></g><g clip-path="url(#e760f64beb)"><path fill="#0e2b63" d="M 136.507812 178.554688 C 136.394531 178.441406 136.28125 178.328125 136.167969 178.214844 L 136.167969 173.941406 C 136.167969 173.601562 135.945312 173.265625 135.722656 173.039062 C 135.382812 172.816406 135.046875 172.816406 134.710938 172.929688 L 132.355469 173.828125 C 130 171.804688 127.195312 170.339844 124.164062 169.554688 C 127.195312 167.753906 129.214844 164.378906 129.214844 160.554688 C 129.214844 154.703125 124.5 149.980469 118.667969 149.980469 C 112.832031 149.980469 108.121094 154.703125 108.121094 160.554688 C 108.121094 164.378906 110.140625 167.640625 113.167969 169.554688 C 110.140625 170.339844 107.335938 171.804688 104.980469 173.828125 L 102.625 172.929688 C 102.285156 172.816406 101.835938 172.816406 101.613281 173.039062 C 101.277344 173.265625 101.164062 173.601562 101.164062 173.941406 L 101.164062 178.101562 C 98.695312 181.589844 97.460938 185.527344 97.460938 190.027344 C 97.460938 190.703125 97.910156 191.152344 98.585938 191.152344 C 98.695312 191.152344 98.808594 191.152344 98.808594 191.152344 C 98.921875 191.152344 98.921875 191.152344 99.03125 191.152344 L 101.050781 191.152344 L 101.050781 194.527344 C 101.050781 194.976562 101.390625 195.425781 101.835938 195.539062 L 115.300781 200.039062 C 115.414062 200.039062 115.527344 200.152344 115.636719 200.152344 L 121.359375 200.152344 C 121.472656 200.152344 121.585938 200.152344 121.695312 200.039062 L 135.160156 195.539062 C 135.609375 195.425781 135.945312 194.976562 135.945312 194.527344 L 135.945312 191.152344 L 138.527344 191.152344 C 139.199219 191.152344 139.648438 190.703125 139.648438 190.027344 C 139.984375 185.867188 138.75 181.929688 136.507812 178.554688 Z M 110.476562 160.554688 C 110.476562 155.941406 114.179688 152.230469 118.78125 152.230469 C 123.378906 152.230469 127.082031 155.941406 127.082031 160.554688 C 127.082031 165.164062 123.378906 168.878906 118.78125 168.878906 C 114.179688 168.878906 110.476562 165.054688 110.476562 160.554688 Z M 118.78125 171.015625 C 122.820312 171.015625 126.746094 172.367188 130 174.726562 L 121.472656 177.992188 L 116.085938 177.992188 L 107.558594 174.726562 C 110.8125 172.367188 114.742188 171.015625 118.78125 171.015625 Z M 116.984375 180.242188 L 120.460938 180.242188 L 120.460938 197.902344 L 116.984375 197.902344 Z M 99.929688 188.902344 C 100.042969 186.652344 100.492188 184.628906 101.277344 182.714844 L 101.277344 188.902344 Z M 103.519531 178.664062 C 103.632812 178.441406 103.519531 178.214844 103.519531 178.101562 L 103.519531 175.628906 L 114.742188 179.902344 L 114.742188 197.453125 L 103.519531 193.738281 Z M 134.039062 193.738281 L 122.820312 197.453125 L 122.820312 179.902344 L 134.039062 175.628906 Z M 136.28125 182.828125 C 137.066406 184.742188 137.515625 186.765625 137.628906 188.902344 L 136.28125 188.902344 Z M 136.28125 182.828125 " fill-opacity="1" fill-rule="nonzero"/></g><g fill="#ffffff" fill-opacity="1"><g transform="translate(130.979563, 203.792436)"><g/></g></g><g fill="#0e2b63" fill-opacity="1"><g transform="translate(148.761284, 203.792436)"><g><path d="M 25.78125 -21.65625 L 3.203125 -21.65625 L 3.203125 -30.640625 L 25.78125 -30.640625 Z M 25.78125 -21.65625 "/></g></g></g><g fill="#0e2b63" fill-opacity="1"><g transform="translate(177.812279, 203.792436)"><g><path d="M 29.34375 0.765625 C 24.414062 0.765625 20.066406 -0.238281 16.296875 -2.25 C 12.523438 -4.257812 9.570312 -7.332031 7.4375 -11.46875 C 5.300781 -15.601562 4.234375 -20.753906 4.234375 -26.921875 C 4.234375 -33.085938 5.300781 -38.238281 7.4375 -42.375 C 9.570312 -46.507812 12.523438 -49.582031 16.296875 -51.59375 C 20.066406 -53.601562 24.414062 -54.609375 29.34375 -54.609375 C 34.28125 -54.609375 38.625 -53.609375 42.375 -51.609375 C 46.132812 -49.609375 49.078125 -46.535156 51.203125 -42.390625 C 53.328125 -38.242188 54.390625 -33.085938 54.390625 -26.921875 C 54.390625 -20.753906 53.328125 -15.597656 51.203125 -11.453125 C 49.078125 -7.304688 46.132812 -4.234375 42.375 -2.234375 C 38.625 -0.234375 34.28125 0.765625 29.34375 0.765625 Z M 29.34375 -8.46875 C 33.914062 -8.46875 37.40625 -9.929688 39.8125 -12.859375 C 42.21875 -15.796875 43.421875 -20.484375 43.421875 -26.921875 C 43.421875 -33.347656 42.21875 -38.035156 39.8125 -40.984375 C 37.40625 -43.929688 33.914062 -45.40625 29.34375 -45.40625 C 24.757812 -45.40625 21.253906 -43.929688 18.828125 -40.984375 C 16.410156 -38.035156 15.203125 -33.347656 15.203125 -26.921875 C 15.203125 -20.484375 16.410156 -15.796875 18.828125 -12.859375 C 21.253906 -9.929688 24.757812 -8.46875 29.34375 -8.46875 Z M 29.34375 -8.46875 "/></g></g></g><g fill="#0e2b63" fill-opacity="1"><g transform="translate(236.466563, 203.792436)"><g><path d="M 17.640625 0 L 7 0 L 7 -53.84375 L 17.640625 -53.84375 Z M 17.640625 0 "/></g></g></g><g fill="#0e2b63" fill-opacity="1"><g transform="translate(261.135971, 203.792436)"><g><path d="M 23.859375 0.765625 C 20.128906 0.765625 16.804688 0.304688 13.890625 -0.609375 C 10.984375 -1.523438 8.5625 -2.734375 6.625 -4.234375 C 4.6875 -5.734375 3.203125 -7.378906 2.171875 -9.171875 L 8.03125 -16.3125 L 8.953125 -16.3125 C 10.566406 -13.90625 12.617188 -11.988281 15.109375 -10.5625 C 17.609375 -9.144531 20.523438 -8.4375 23.859375 -8.4375 C 26.710938 -8.4375 28.863281 -9.035156 30.3125 -10.234375 C 31.757812 -11.441406 32.484375 -13.097656 32.484375 -15.203125 C 32.484375 -16.484375 32.25 -17.550781 31.78125 -18.40625 C 31.3125 -19.269531 30.535156 -20.007812 29.453125 -20.625 C 28.378906 -21.238281 26.921875 -21.765625 25.078125 -22.203125 L 18.15625 -23.796875 C 13.320312 -24.898438 9.71875 -26.734375 7.34375 -29.296875 C 4.976562 -31.859375 3.796875 -35.191406 3.796875 -39.296875 C 3.796875 -42.335938 4.554688 -45.007812 6.078125 -47.3125 C 7.597656 -49.625 9.8125 -51.414062 12.71875 -52.6875 C 15.632812 -53.96875 19.117188 -54.609375 23.171875 -54.609375 C 27.316406 -54.609375 30.867188 -54.0625 33.828125 -52.96875 C 36.785156 -51.882812 39.28125 -50.210938 41.3125 -47.953125 L 36.046875 -40.734375 L 35.140625 -40.734375 C 33.609375 -42.328125 31.859375 -43.519531 29.890625 -44.3125 C 27.929688 -45.113281 25.691406 -45.515625 23.171875 -45.515625 C 20.242188 -45.515625 18.019531 -45 16.5 -43.96875 C 14.976562 -42.9375 14.21875 -41.515625 14.21875 -39.703125 C 14.21875 -38.003906 14.75 -36.648438 15.8125 -35.640625 C 16.882812 -34.640625 18.734375 -33.859375 21.359375 -33.296875 L 28.4375 -31.8125 C 33.664062 -30.707031 37.457031 -28.835938 39.8125 -26.203125 C 42.164062 -23.566406 43.34375 -20.125 43.34375 -15.875 C 43.34375 -12.507812 42.617188 -9.578125 41.171875 -7.078125 C 39.722656 -4.585938 37.535156 -2.65625 34.609375 -1.28125 C 31.691406 0.0820312 28.109375 0.765625 23.859375 0.765625 Z M 23.859375 0.765625 "/></g></g></g><g fill="#0e2b63" fill-opacity="1"><g transform="translate(50.491122, 265.165875)"><g><path d="M 4.800781 0.125 C 6.546875 0.125 7.886719 -0.75 8.574219 -2.34375 L 7.390625 -2.84375 C 6.894531 -1.542969 5.984375 -1.082031 4.832031 -1.082031 C 2.773438 -1.082031 1.933594 -2.632812 1.933594 -4.511719 C 1.933594 -6.3125 2.765625 -7.859375 4.808594 -7.859375 C 5.957031 -7.859375 7.011719 -7.410156 7.375 -6.117188 L 8.5625 -6.609375 C 7.890625 -8.265625 6.546875 -9.074219 4.839844 -9.074219 C 1.953125 -9.074219 0.664062 -6.929688 0.664062 -4.472656 C 0.664062 -1.988281 1.984375 0.125 4.800781 0.125 Z M 4.800781 0.125 "/></g></g><g transform="translate(59.494397, 265.165875)"><g><path d="M 0.949219 -7.613281 L 2.269531 -7.613281 L 2.269531 -8.925781 L 0.949219 -8.925781 Z M 1 0 L 2.21875 0 L 2.21875 -6.3125 L 1 -6.3125 Z M 1 0 "/></g></g></g><g fill="#0e2b63" fill-opacity="1"><g transform="translate(62.710303, 265.165875)"><g><path d="M 2.976562 0.125 C 3.386719 0.125 3.777344 0.0429688 3.960938 -0.03125 L 3.960938 -1.117188 C 3.757812 -1.015625 3.476562 -0.921875 3.210938 -0.921875 C 2.78125 -0.921875 2.453125 -1.179688 2.453125 -1.832031 L 2.453125 -5.292969 L 4.050781 -5.292969 L 4.050781 -6.3125 L 2.453125 -6.3125 L 2.453125 -8.789062 L 1.25 -7.804688 L 1.25 -6.3125 L 0.222656 -6.3125 L 0.222656 -5.292969 L 1.238281 -5.292969 L 1.238281 -1.707031 C 1.238281 -0.59375 1.800781 0.125 2.976562 0.125 Z M 2.976562 0.125 "/></g></g><g transform="translate(67.202464, 265.165875)"><g><path d="M 1.429688 2.714844 L 2.742188 2.714844 L 6.230469 -6.3125 L 4.890625 -6.3125 L 3.179688 -1.515625 L 1.445312 -6.3125 L 0.101562 -6.3125 L 2.546875 -0.09375 Z M 1.429688 2.714844 "/></g></g></g><g fill="#0e2b63" fill-opacity="1"><g transform="translate(73.533188, 265.165875)"><g/></g></g><g fill="#0e2b63" fill-opacity="1"><g transform="translate(76.805957, 265.165875)"><g><path d="M 3.652344 0.101562 C 5.292969 0.101562 6.582031 -0.910156 6.582031 -2.527344 C 6.582031 -5.445312 2.273438 -4.933594 2.273438 -6.785156 C 2.273438 -7.488281 2.875 -7.929688 3.5625 -7.929688 C 4.21875 -7.929688 4.820312 -7.59375 5.160156 -6.9375 L 6.183594 -7.589844 C 5.605469 -8.597656 4.667969 -9.058594 3.59375 -9.058594 C 2.1875 -9.058594 1.003906 -8.167969 1.003906 -6.703125 C 1.003906 -3.898438 5.320312 -4.511719 5.320312 -2.417969 C 5.320312 -1.546875 4.683594 -1.042969 3.664062 -1.042969 C 2.660156 -1.042969 1.773438 -1.566406 1.65625 -2.730469 L 0.410156 -2.394531 C 0.683594 -0.726562 2.136719 0.101562 3.652344 0.101562 Z M 3.652344 0.101562 "/></g></g><g transform="translate(83.901169, 265.165875)"><g><path d="M 3.367188 0.125 C 4.5625 0.125 5.476562 -0.53125 5.871094 -1.644531 L 4.78125 -2.078125 C 4.597656 -1.402344 4.050781 -0.949219 3.355469 -0.949219 C 2.148438 -0.949219 1.726562 -2.085938 1.726562 -3.144531 C 1.726562 -4.195312 2.160156 -5.363281 3.355469 -5.363281 C 4.054688 -5.363281 4.597656 -4.902344 4.78125 -4.207031 L 5.9375 -4.683594 C 5.476562 -5.820312 4.550781 -6.445312 3.355469 -6.445312 C 1.421875 -6.445312 0.480469 -4.820312 0.480469 -3.144531 C 0.480469 -1.453125 1.433594 0.125 3.367188 0.125 Z M 3.367188 0.125 "/></g></g><g transform="translate(90.14344, 265.165875)"><g><path d="M 1.011719 0 L 2.238281 0 L 2.238281 -3.304688 C 2.238281 -4.417969 2.867188 -5.308594 3.917969 -5.308594 C 4.933594 -5.308594 5.160156 -4.492188 5.160156 -3.675781 L 5.160156 0 L 6.40625 0 L 6.40625 -3.847656 C 6.40625 -5.175781 5.761719 -6.433594 4.183594 -6.433594 C 3.457031 -6.433594 2.699219 -6.078125 2.238281 -5.414062 L 2.238281 -8.925781 L 1.011719 -8.925781 Z M 1.011719 0 "/></g></g><g transform="translate(97.37765, 265.165875)"><g><path d="M 3.539062 0.125 C 5.394531 0.125 6.652344 -1.378906 6.652344 -3.171875 C 6.652344 -4.960938 5.394531 -6.445312 3.539062 -6.445312 C 1.675781 -6.445312 0.4375 -4.960938 0.4375 -3.171875 C 0.4375 -1.378906 1.675781 0.125 3.539062 0.125 Z M 3.542969 -0.910156 C 2.253906 -0.910156 1.699219 -2.007812 1.699219 -3.171875 C 1.699219 -4.328125 2.253906 -5.402344 3.542969 -5.402344 C 4.839844 -5.402344 5.390625 -4.328125 5.390625 -3.171875 C 5.390625 -2.023438 4.839844 -0.910156 3.542969 -0.910156 Z M 3.542969 -0.910156 "/></g></g><g transform="translate(104.472863, 265.165875)"><g><path d="M 2.128906 0.125 C 2.46875 0.125 2.863281 0.0625 3.121094 0 L 3.121094 -1.011719 C 2.96875 -0.980469 2.753906 -0.960938 2.597656 -0.960938 C 2.28125 -0.960938 2.191406 -1.246094 2.191406 -1.347656 L 2.191406 -8.925781 L 0.964844 -8.925781 L 0.964844 -1.261719 C 0.964844 -0.339844 1.28125 0.125 2.128906 0.125 Z M 2.128906 0.125 "/></g></g><g transform="translate(107.909902, 265.165875)"><g><path d="M 2.585938 0.125 C 3.410156 0.125 4.183594 -0.195312 4.683594 -1.066406 L 4.746094 0 L 5.761719 0 L 5.761719 -3.855469 C 5.761719 -5.390625 4.832031 -6.445312 3.171875 -6.445312 C 2.035156 -6.445312 1.246094 -5.945312 0.664062 -5.136719 L 1.578125 -4.453125 C 1.871094 -4.902344 2.386719 -5.375 3.203125 -5.375 C 4.195312 -5.375 4.613281 -4.6875 4.613281 -3.683594 L 3.078125 -3.683594 C 1.460938 -3.683594 0.421875 -3.160156 0.421875 -1.84375 C 0.421875 -0.59375 1.347656 0.125 2.585938 0.125 Z M 2.742188 -0.910156 C 2.117188 -0.910156 1.679688 -1.214844 1.679688 -1.808594 C 1.679688 -2.4375 2.171875 -2.78125 3.164062 -2.78125 L 4.613281 -2.78125 C 4.597656 -1.871094 3.839844 -0.910156 2.742188 -0.910156 Z M 2.742188 -0.910156 "/></g></g></g><g fill="#0e2b63" fill-opacity="1"><g transform="translate(114.49335, 265.165875)"><g><path d="M 1 0 L 2.1875 0 L 2.1875 -2.925781 C 2.1875 -4.484375 2.882812 -5.261719 3.789062 -5.261719 C 4.070312 -5.261719 4.316406 -5.1875 4.523438 -5.027344 L 5.0625 -6.058594 C 4.796875 -6.300781 4.410156 -6.445312 3.980469 -6.445312 C 3.230469 -6.445312 2.503906 -5.988281 2.199219 -5.21875 L 2.199219 -6.3125 L 1 -6.3125 Z M 1 0 "/></g></g><g transform="translate(119.57941, 265.165875)"><g><path d="M 2.816406 0.125 C 3.957031 0.125 5.117188 -0.503906 5.117188 -1.890625 C 5.117188 -4.203125 1.808594 -3.527344 1.808594 -4.75 C 1.808594 -5.160156 2.179688 -5.472656 2.773438 -5.472656 C 3.457031 -5.472656 3.867188 -5.09375 4.113281 -4.617188 L 5.042969 -5.128906 C 4.613281 -5.933594 3.839844 -6.445312 2.816406 -6.445312 C 1.675781 -6.445312 0.65625 -5.820312 0.65625 -4.59375 C 0.65625 -2.414062 3.921875 -3.191406 3.921875 -1.789062 C 3.921875 -1.269531 3.5 -0.882812 2.785156 -0.882812 C 1.941406 -0.882812 1.515625 -1.433594 1.320312 -2.003906 L 0.320312 -1.535156 C 0.621094 -0.632812 1.5625 0.125 2.816406 0.125 Z M 2.816406 0.125 "/></g></g></g><g fill="#0e2b63" fill-opacity="1"><g transform="translate(125.189872, 265.165875)"><g><path d="M 1.011719 0 L 2.238281 0 L 2.238281 -3.304688 C 2.238281 -4.417969 2.867188 -5.308594 3.917969 -5.308594 C 4.933594 -5.308594 5.160156 -4.492188 5.160156 -3.675781 L 5.160156 0 L 6.40625 0 L 6.40625 -3.847656 C 6.40625 -5.175781 5.761719 -6.433594 4.183594 -6.433594 C 3.457031 -6.433594 2.699219 -6.078125 2.238281 -5.414062 L 2.238281 -8.925781 L 1.011719 -8.925781 Z M 1.011719 0 "/></g></g><g transform="translate(132.424082, 265.165875)"><g><path d="M 0.949219 -7.613281 L 2.269531 -7.613281 L 2.269531 -8.925781 L 0.949219 -8.925781 Z M 1 0 L 2.21875 0 L 2.21875 -6.3125 L 1 -6.3125 Z M 1 0 "/></g></g><g transform="translate(135.639989, 265.165875)"><g><path d="M 1.011719 2.765625 L 2.242188 2.765625 L 2.242188 -0.757812 C 2.679688 -0.164062 3.375 0.125 4.113281 0.125 C 5.832031 0.125 6.746094 -1.390625 6.746094 -3.160156 C 6.746094 -4.945312 5.824219 -6.445312 4.101562 -6.445312 C 3.335938 -6.445312 2.667969 -6.136719 2.242188 -5.558594 L 2.242188 -6.3125 L 1.011719 -6.3125 Z M 3.816406 -0.964844 C 2.640625 -0.964844 2.128906 -1.976562 2.128906 -3.160156 C 2.128906 -4.335938 2.640625 -5.371094 3.816406 -5.371094 C 4.992188 -5.371094 5.507812 -4.335938 5.507812 -3.160156 C 5.507812 -1.976562 4.992188 -0.964844 3.816406 -0.964844 Z M 3.816406 -0.964844 "/></g></g></g><g fill="#0e2b63" fill-opacity="1"><g transform="translate(142.899472, 265.165875)"><g><path d="M 2.816406 0.125 C 3.957031 0.125 5.117188 -0.503906 5.117188 -1.890625 C 5.117188 -4.203125 1.808594 -3.527344 1.808594 -4.75 C 1.808594 -5.160156 2.179688 -5.472656 2.773438 -5.472656 C 3.457031 -5.472656 3.867188 -5.09375 4.113281 -4.617188 L 5.042969 -5.128906 C 4.613281 -5.933594 3.839844 -6.445312 2.816406 -6.445312 C 1.675781 -6.445312 0.65625 -5.820312 0.65625 -4.59375 C 0.65625 -2.414062 3.921875 -3.191406 3.921875 -1.789062 C 3.921875 -1.269531 3.5 -0.882812 2.785156 -0.882812 C 1.941406 -0.882812 1.515625 -1.433594 1.320312 -2.003906 L 0.320312 -1.535156 C 0.621094 -0.632812 1.5625 0.125 2.816406 0.125 Z M 2.816406 0.125 "/></g></g></g><g fill="#0e2b63" fill-opacity="1"><g transform="translate(148.509934, 265.165875)"><g><path d="M 1.390625 -6.050781 L 2.453125 -6.050781 L 2.453125 -9.109375 L 1.390625 -9.109375 Z M 1.390625 -6.050781 "/></g></g><g transform="translate(152.351331, 265.165875)"><g/></g></g><g fill="#0e2b63" fill-opacity="1"><g transform="translate(155.6241, 265.165875)"><g><path d="M 4.800781 0.125 C 7.632812 0.125 8.953125 -2.007812 8.953125 -4.46875 C 8.953125 -6.917969 7.632812 -9.058594 4.800781 -9.058594 C 1.976562 -9.058594 0.65625 -6.917969 0.65625 -4.46875 C 0.65625 -2.007812 1.976562 0.125 4.800781 0.125 Z M 4.800781 -1.03125 C 2.761719 -1.03125 1.972656 -2.660156 1.972656 -4.46875 C 1.972656 -6.265625 2.761719 -7.898438 4.800781 -7.898438 C 6.847656 -7.898438 7.644531 -6.265625 7.644531 -4.46875 C 7.644531 -2.660156 6.847656 -1.03125 4.800781 -1.03125 Z M 4.800781 -1.03125 "/></g></g><g transform="translate(165.233912, 265.165875)"><g><path d="M 1 0 L 2.210938 0 L 2.210938 -3.359375 C 2.210938 -4.707031 2.894531 -5.339844 3.824219 -5.339844 C 4.78125 -5.339844 5.148438 -4.523438 5.148438 -3.675781 L 5.148438 0 L 6.363281 0 L 6.363281 -3.816406 C 6.363281 -5.175781 5.738281 -6.433594 4.164062 -6.433594 C 3.386719 -6.433594 2.671875 -6.066406 2.210938 -5.382812 L 2.210938 -6.3125 L 1 -6.3125 Z M 1 0 "/></g></g><g transform="translate(172.430213, 265.165875)"><g><path d="M 2.128906 0.125 C 2.46875 0.125 2.863281 0.0625 3.121094 0 L 3.121094 -1.011719 C 2.96875 -0.980469 2.753906 -0.960938 2.597656 -0.960938 C 2.28125 -0.960938 2.191406 -1.246094 2.191406 -1.347656 L 2.191406 -8.925781 L 0.964844 -8.925781 L 0.964844 -1.261719 C 0.964844 -0.339844 1.28125 0.125 2.128906 0.125 Z M 2.128906 0.125 "/></g></g><g transform="translate(175.867253, 265.165875)"><g><path d="M 0.949219 -7.613281 L 2.269531 -7.613281 L 2.269531 -8.925781 L 0.949219 -8.925781 Z M 1 0 L 2.21875 0 L 2.21875 -6.3125 L 1 -6.3125 Z M 1 0 "/></g></g><g transform="translate(179.08316, 265.165875)"><g><path d="M 1 0 L 2.210938 0 L 2.210938 -3.359375 C 2.210938 -4.707031 2.894531 -5.339844 3.824219 -5.339844 C 4.78125 -5.339844 5.148438 -4.523438 5.148438 -3.675781 L 5.148438 0 L 6.363281 0 L 6.363281 -3.816406 C 6.363281 -5.175781 5.738281 -6.433594 4.164062 -6.433594 C 3.386719 -6.433594 2.671875 -6.066406 2.210938 -5.382812 L 2.210938 -6.3125 L 1 -6.3125 Z M 1 0 "/></g></g><g transform="translate(186.279462, 265.165875)"><g><path d="M 3.480469 0.105469 C 4.511719 0.105469 5.289062 -0.222656 5.976562 -0.949219 L 5.128906 -1.660156 C 4.664062 -1.148438 4.132812 -0.984375 3.480469 -0.984375 C 2.355469 -0.984375 1.820312 -1.761719 1.761719 -2.753906 L 6.128906 -2.753906 C 6.148438 -2.855469 6.167969 -3.082031 6.167969 -3.292969 C 6.167969 -4.726562 5.503906 -6.417969 3.375 -6.417969 C 1.402344 -6.417969 0.46875 -4.796875 0.46875 -3.128906 C 0.46875 -1.421875 1.441406 0.105469 3.480469 0.105469 Z M 1.761719 -3.683594 C 1.851562 -4.617188 2.332031 -5.402344 3.367188 -5.402344 C 4.433594 -5.402344 4.921875 -4.644531 4.980469 -3.683594 Z M 1.761719 -3.683594 "/></g></g></g><g fill="#0e2b63" fill-opacity="1"><g transform="translate(192.919772, 265.165875)"><g/></g></g><g fill="#0e2b63" fill-opacity="1"><g transform="translate(196.192541, 265.165875)"><g><path d="M 1.25 0 L 2.535156 0 L 2.535156 -8.925781 L 1.25 -8.925781 Z M 1.25 0 "/></g></g><g transform="translate(199.977076, 265.165875)"><g><path d="M 1 0 L 2.210938 0 L 2.210938 -3.359375 C 2.210938 -4.707031 2.894531 -5.339844 3.824219 -5.339844 C 4.78125 -5.339844 5.148438 -4.523438 5.148438 -3.675781 L 5.148438 0 L 6.363281 0 L 6.363281 -3.816406 C 6.363281 -5.175781 5.738281 -6.433594 4.164062 -6.433594 C 3.386719 -6.433594 2.671875 -6.066406 2.210938 -5.382812 L 2.210938 -6.3125 L 1 -6.3125 Z M 1 0 "/></g></g><g transform="translate(207.173377, 265.165875)"><g><path d="M 1.320312 0 L 2.566406 0 L 2.566406 -5.292969 L 4.21875 -5.292969 L 4.21875 -6.3125 L 2.566406 -6.3125 L 2.566406 -7.171875 C 2.566406 -7.746094 2.882812 -7.992188 3.285156 -7.992188 C 3.488281 -7.992188 3.703125 -7.921875 3.910156 -7.816406 L 4.265625 -8.808594 C 3.949219 -8.960938 3.574219 -9.058594 3.179688 -9.058594 C 2.191406 -9.058594 1.328125 -8.453125 1.328125 -7.273438 L 1.328125 -6.3125 L 0.171875 -6.3125 L 0.171875 -5.292969 L 1.320312 -5.292969 Z M 1.320312 0 "/></g></g><g transform="translate(211.488631, 265.165875)"><g><path d="M 3.539062 0.125 C 5.394531 0.125 6.652344 -1.378906 6.652344 -3.171875 C 6.652344 -4.960938 5.394531 -6.445312 3.539062 -6.445312 C 1.675781 -6.445312 0.4375 -4.960938 0.4375 -3.171875 C 0.4375 -1.378906 1.675781 0.125 3.539062 0.125 Z M 3.542969 -0.910156 C 2.253906 -0.910156 1.699219 -2.007812 1.699219 -3.171875 C 1.699219 -4.328125 2.253906 -5.402344 3.542969 -5.402344 C 4.839844 -5.402344 5.390625 -4.328125 5.390625 -3.171875 C 5.390625 -2.023438 4.839844 -0.910156 3.542969 -0.910156 Z M 3.542969 -0.910156 "/></g></g></g><g fill="#0e2b63" fill-opacity="1"><g transform="translate(218.583844, 265.165875)"><g><path d="M 1 0 L 2.1875 0 L 2.1875 -2.925781 C 2.1875 -4.484375 2.882812 -5.261719 3.789062 -5.261719 C 4.070312 -5.261719 4.316406 -5.1875 4.523438 -5.027344 L 5.0625 -6.058594 C 4.796875 -6.300781 4.410156 -6.445312 3.980469 -6.445312 C 3.230469 -6.445312 2.503906 -5.988281 2.199219 -5.21875 L 2.199219 -6.3125 L 1 -6.3125 Z M 1 0 "/></g></g></g><g fill="#0e2b63" fill-opacity="1"><g transform="translate(223.669904, 265.165875)"><g><path d="M 1 0 L 2.230469 0 L 2.230469 -3.375 C 2.230469 -4.371094 2.761719 -5.34375 3.707031 -5.34375 C 4.65625 -5.34375 4.882812 -4.515625 4.882812 -3.703125 L 4.882812 0 L 6.121094 0 L 6.121094 -3.480469 C 6.121094 -4.429688 6.652344 -5.34375 7.59375 -5.34375 C 8.546875 -5.34375 8.789062 -4.492188 8.789062 -3.675781 L 8.789062 0 L 10.03125 0 L 10.03125 -3.816406 C 10.03125 -5.1875 9.363281 -6.445312 7.769531 -6.445312 C 6.917969 -6.445312 6.191406 -6.035156 5.75 -5.21875 C 5.390625 -6.050781 4.726562 -6.445312 3.890625 -6.445312 C 3.195312 -6.445312 2.558594 -6.078125 2.230469 -5.484375 L 2.230469 -6.3125 L 1 -6.3125 Z M 1 0 "/></g></g><g transform="translate(234.530697, 265.165875)"><g><path d="M 2.585938 0.125 C 3.410156 0.125 4.183594 -0.195312 4.683594 -1.066406 L 4.746094 0 L 5.761719 0 L 5.761719 -3.855469 C 5.761719 -5.390625 4.832031 -6.445312 3.171875 -6.445312 C 2.035156 -6.445312 1.246094 -5.945312 0.664062 -5.136719 L 1.578125 -4.453125 C 1.871094 -4.902344 2.386719 -5.375 3.203125 -5.375 C 4.195312 -5.375 4.613281 -4.6875 4.613281 -3.683594 L 3.078125 -3.683594 C 1.460938 -3.683594 0.421875 -3.160156 0.421875 -1.84375 C 0.421875 -0.59375 1.347656 0.125 2.585938 0.125 Z M 2.742188 -0.910156 C 2.117188 -0.910156 1.679688 -1.214844 1.679688 -1.808594 C 1.679688 -2.4375 2.171875 -2.78125 3.164062 -2.78125 L 4.613281 -2.78125 C 4.597656 -1.871094 3.839844 -0.910156 2.742188 -0.910156 Z M 2.742188 -0.910156 "/></g></g></g><g fill="#0e2b63" fill-opacity="1"><g transform="translate(241.114144, 265.165875)"><g><path d="M 2.976562 0.125 C 3.386719 0.125 3.777344 0.0429688 3.960938 -0.03125 L 3.960938 -1.117188 C 3.757812 -1.015625 3.476562 -0.921875 3.210938 -0.921875 C 2.78125 -0.921875 2.453125 -1.179688 2.453125 -1.832031 L 2.453125 -5.292969 L 4.050781 -5.292969 L 4.050781 -6.3125 L 2.453125 -6.3125 L 2.453125 -8.789062 L 1.25 -7.804688 L 1.25 -6.3125 L 0.222656 -6.3125 L 0.222656 -5.292969 L 1.238281 -5.292969 L 1.238281 -1.707031 C 1.238281 -0.59375 1.800781 0.125 2.976562 0.125 Z M 2.976562 0.125 "/></g></g></g><g fill="#0e2b63" fill-opacity="1"><g transform="translate(245.606304, 265.165875)"><g><path d="M 0.949219 -7.613281 L 2.269531 -7.613281 L 2.269531 -8.925781 L 0.949219 -8.925781 Z M 1 0 L 2.21875 0 L 2.21875 -6.3125 L 1 -6.3125 Z M 1 0 "/></g></g><g transform="translate(248.822211, 265.165875)"><g><path d="M 3.539062 0.125 C 5.394531 0.125 6.652344 -1.378906 6.652344 -3.171875 C 6.652344 -4.960938 5.394531 -6.445312 3.539062 -6.445312 C 1.675781 -6.445312 0.4375 -4.960938 0.4375 -3.171875 C 0.4375 -1.378906 1.675781 0.125 3.539062 0.125 Z M 3.542969 -0.910156 C 2.253906 -0.910156 1.699219 -2.007812 1.699219 -3.171875 C 1.699219 -4.328125 2.253906 -5.402344 3.542969 -5.402344 C 4.839844 -5.402344 5.390625 -4.328125 5.390625 -3.171875 C 5.390625 -2.023438 4.839844 -0.910156 3.542969 -0.910156 Z M 3.542969 -0.910156 "/></g></g><g transform="translate(255.917424, 265.165875)"><g><path d="M 1 0 L 2.210938 0 L 2.210938 -3.359375 C 2.210938 -4.707031 2.894531 -5.339844 3.824219 -5.339844 C 4.78125 -5.339844 5.148438 -4.523438 5.148438 -3.675781 L 5.148438 0 L 6.363281 0 L 6.363281 -3.816406 C 6.363281 -5.175781 5.738281 -6.433594 4.164062 -6.433594 C 3.386719 -6.433594 2.671875 -6.066406 2.210938 -5.382812 L 2.210938 -6.3125 L 1 -6.3125 Z M 1 0 "/></g></g></g><g fill="#0e2b63" fill-opacity="1"><g transform="translate(263.113725, 265.165875)"><g/></g></g><g fill="#0e2b63" fill-opacity="1"><g transform="translate(266.386495, 265.165875)"><g><path d="M 3.652344 0.101562 C 5.292969 0.101562 6.582031 -0.910156 6.582031 -2.527344 C 6.582031 -5.445312 2.273438 -4.933594 2.273438 -6.785156 C 2.273438 -7.488281 2.875 -7.929688 3.5625 -7.929688 C 4.21875 -7.929688 4.820312 -7.59375 5.160156 -6.9375 L 6.183594 -7.589844 C 5.605469 -8.597656 4.667969 -9.058594 3.59375 -9.058594 C 2.1875 -9.058594 1.003906 -8.167969 1.003906 -6.703125 C 1.003906 -3.898438 5.320312 -4.511719 5.320312 -2.417969 C 5.320312 -1.546875 4.683594 -1.042969 3.664062 -1.042969 C 2.660156 -1.042969 1.773438 -1.566406 1.65625 -2.730469 L 0.410156 -2.394531 C 0.683594 -0.726562 2.136719 0.101562 3.652344 0.101562 Z M 3.652344 0.101562 "/></g></g></g><g fill="#0e2b63" fill-opacity="1"><g transform="translate(273.481707, 265.165875)"><g><path d="M 1.429688 2.714844 L 2.742188 2.714844 L 6.230469 -6.3125 L 4.890625 -6.3125 L 3.179688 -1.515625 L 1.445312 -6.3125 L 0.101562 -6.3125 L 2.546875 -0.09375 Z M 1.429688 2.714844 "/></g></g><g transform="translate(279.812431, 265.165875)"><g><path d="M 2.816406 0.125 C 3.957031 0.125 5.117188 -0.503906 5.117188 -1.890625 C 5.117188 -4.203125 1.808594 -3.527344 1.808594 -4.75 C 1.808594 -5.160156 2.179688 -5.472656 2.773438 -5.472656 C 3.457031 -5.472656 3.867188 -5.09375 4.113281 -4.617188 L 5.042969 -5.128906 C 4.613281 -5.933594 3.839844 -6.445312 2.816406 -6.445312 C 1.675781 -6.445312 0.65625 -5.820312 0.65625 -4.59375 C 0.65625 -2.414062 3.921875 -3.191406 3.921875 -1.789062 C 3.921875 -1.269531 3.5 -0.882812 2.785156 -0.882812 C 1.941406 -0.882812 1.515625 -1.433594 1.320312 -2.003906 L 0.320312 -1.535156 C 0.621094 -0.632812 1.5625 0.125 2.816406 0.125 Z M 2.816406 0.125 "/></g></g><g transform="translate(285.422893, 265.165875)"><g><path d="M 2.976562 0.125 C 3.386719 0.125 3.777344 0.0429688 3.960938 -0.03125 L 3.960938 -1.117188 C 3.757812 -1.015625 3.476562 -0.921875 3.210938 -0.921875 C 2.78125 -0.921875 2.453125 -1.179688 2.453125 -1.832031 L 2.453125 -5.292969 L 4.050781 -5.292969 L 4.050781 -6.3125 L 2.453125 -6.3125 L 2.453125 -8.789062 L 1.25 -7.804688 L 1.25 -6.3125 L 0.222656 -6.3125 L 0.222656 -5.292969 L 1.238281 -5.292969 L 1.238281 -1.707031 C 1.238281 -0.59375 1.800781 0.125 2.976562 0.125 Z M 2.976562 0.125 "/></g></g></g><g fill="#0e2b63" fill-opacity="1"><g transform="translate(289.915053, 265.165875)"><g><path d="M 3.480469 0.105469 C 4.511719 0.105469 5.289062 -0.222656 5.976562 -0.949219 L 5.128906 -1.660156 C 4.664062 -1.148438 4.132812 -0.984375 3.480469 -0.984375 C 2.355469 -0.984375 1.820312 -1.761719 1.761719 -2.753906 L 6.128906 -2.753906 C 6.148438 -2.855469 6.167969 -3.082031 6.167969 -3.292969 C 6.167969 -4.726562 5.503906 -6.417969 3.375 -6.417969 C 1.402344 -6.417969 0.46875 -4.796875 0.46875 -3.128906 C 0.46875 -1.421875 1.441406 0.105469 3.480469 0.105469 Z M 1.761719 -3.683594 C 1.851562 -4.617188 2.332031 -5.402344 3.367188 -5.402344 C 4.433594 -5.402344 4.921875 -4.644531 4.980469 -3.683594 Z M 1.761719 -3.683594 "/></g></g><g transform="translate(296.555363, 265.165875)"><g><path d="M 1 0 L 2.230469 0 L 2.230469 -3.375 C 2.230469 -4.371094 2.761719 -5.34375 3.707031 -5.34375 C 4.65625 -5.34375 4.882812 -4.515625 4.882812 -3.703125 L 4.882812 0 L 6.121094 0 L 6.121094 -3.480469 C 6.121094 -4.429688 6.652344 -5.34375 7.59375 -5.34375 C 8.546875 -5.34375 8.789062 -4.492188 8.789062 -3.675781 L 8.789062 0 L 10.03125 0 L 10.03125 -3.816406 C 10.03125 -5.1875 9.363281 -6.445312 7.769531 -6.445312 C 6.917969 -6.445312 6.191406 -6.035156 5.75 -5.21875 C 5.390625 -6.050781 4.726562 -6.445312 3.890625 -6.445312 C 3.195312 -6.445312 2.558594 -6.078125 2.230469 -5.484375 L 2.230469 -6.3125 L 1 -6.3125 Z M 1 0 "/></g></g></g></svg>